<mxfile host="Electron" modified="2023-11-20T18:24:25.038Z" agent="Mozilla/5.0 (Windows NT 10.0; Win64; x64) AppleWebKit/537.36 (KHTML, like Gecko) draw.io/22.1.2 Chrome/114.0.5735.289 Electron/25.9.4 Safari/537.36" etag="YWqpYIg11V8O8H1fHlr4" version="22.1.2" type="device">
  <diagram id="8rJtg9jcF6wntet2b0xd" name="11">
    <mxGraphModel dx="874" dy="1238" grid="1" gridSize="10" guides="1" tooltips="1" connect="1" arrows="1" fold="1" page="1" pageScale="1" pageWidth="827" pageHeight="1169" math="0" shadow="0">
      <root>
        <mxCell id="0" />
        <mxCell id="1" parent="0" />
        <mxCell id="OZ1Vfy1bdgRLmu8WDWCu-1" style="edgeStyle=orthogonalEdgeStyle;rounded=0;orthogonalLoop=1;jettySize=auto;html=1;strokeWidth=1;entryX=0.503;entryY=0.237;entryDx=0;entryDy=0;entryPerimeter=0;" parent="1" source="OZ1Vfy1bdgRLmu8WDWCu-2" target="OZ1Vfy1bdgRLmu8WDWCu-4" edge="1">
          <mxGeometry relative="1" as="geometry">
            <mxPoint x="220" y="110" as="targetPoint" />
          </mxGeometry>
        </mxCell>
        <mxCell id="OZ1Vfy1bdgRLmu8WDWCu-2" value="Начало" style="rounded=1;whiteSpace=wrap;html=1;arcSize=50;strokeWidth=1;" parent="1" vertex="1">
          <mxGeometry x="160" y="40" width="120" height="40" as="geometry" />
        </mxCell>
        <mxCell id="Lw7SE_ZflwtWmPrIWczu-2" style="edgeStyle=orthogonalEdgeStyle;rounded=0;orthogonalLoop=1;jettySize=auto;html=1;" parent="1" source="OZ1Vfy1bdgRLmu8WDWCu-4" target="Lw7SE_ZflwtWmPrIWczu-1" edge="1">
          <mxGeometry relative="1" as="geometry" />
        </mxCell>
        <mxCell id="OZ1Vfy1bdgRLmu8WDWCu-4" value="k" style="html=1;strokeWidth=1;shape=manualInput;whiteSpace=wrap;rounded=1;size=13;arcSize=11;" parent="1" vertex="1">
          <mxGeometry x="160" y="100" width="120" height="40" as="geometry" />
        </mxCell>
        <mxCell id="Lw7SE_ZflwtWmPrIWczu-4" style="edgeStyle=orthogonalEdgeStyle;rounded=0;orthogonalLoop=1;jettySize=auto;html=1;" parent="1" source="Lw7SE_ZflwtWmPrIWczu-1" edge="1">
          <mxGeometry relative="1" as="geometry">
            <mxPoint x="220" y="240" as="targetPoint" />
          </mxGeometry>
        </mxCell>
        <mxCell id="Lw7SE_ZflwtWmPrIWczu-1" value="c := 1" style="rounded=0;whiteSpace=wrap;html=1;strokeWidth=1;" parent="1" vertex="1">
          <mxGeometry x="160" y="170" width="120" height="40" as="geometry" />
        </mxCell>
        <mxCell id="Lw7SE_ZflwtWmPrIWczu-15" style="edgeStyle=orthogonalEdgeStyle;rounded=0;orthogonalLoop=1;jettySize=auto;html=1;" parent="1" source="Lw7SE_ZflwtWmPrIWczu-8" target="Lw7SE_ZflwtWmPrIWczu-9" edge="1">
          <mxGeometry relative="1" as="geometry" />
        </mxCell>
        <mxCell id="Lw7SE_ZflwtWmPrIWczu-8" value="c" style="shape=parallelogram;perimeter=parallelogramPerimeter;whiteSpace=wrap;html=1;fixedSize=1;" parent="1" vertex="1">
          <mxGeometry x="160" y="520" width="120" height="40" as="geometry" />
        </mxCell>
        <mxCell id="Lw7SE_ZflwtWmPrIWczu-9" value="Конец" style="rounded=1;whiteSpace=wrap;html=1;arcSize=50;strokeWidth=1;" parent="1" vertex="1">
          <mxGeometry x="160" y="590" width="120" height="40" as="geometry" />
        </mxCell>
        <mxCell id="-MnlB71Zx33rIP29frci-24" style="edgeStyle=orthogonalEdgeStyle;rounded=0;orthogonalLoop=1;jettySize=auto;html=1;" edge="1" parent="1" source="-MnlB71Zx33rIP29frci-25" target="-MnlB71Zx33rIP29frci-27">
          <mxGeometry relative="1" as="geometry" />
        </mxCell>
        <mxCell id="-MnlB71Zx33rIP29frci-25" value="i := 2" style="strokeWidth=1;html=1;shape=mxgraph.flowchart.loop_limit;whiteSpace=wrap;" vertex="1" parent="1">
          <mxGeometry x="160" y="240" width="120" height="40" as="geometry" />
        </mxCell>
        <mxCell id="-MnlB71Zx33rIP29frci-26" style="edgeStyle=orthogonalEdgeStyle;rounded=0;orthogonalLoop=1;jettySize=auto;html=1;" edge="1" parent="1" source="-MnlB71Zx33rIP29frci-27" target="-MnlB71Zx33rIP29frci-28">
          <mxGeometry relative="1" as="geometry" />
        </mxCell>
        <mxCell id="-MnlB71Zx33rIP29frci-27" value="c := c * i" style="rounded=0;whiteSpace=wrap;html=1;strokeWidth=1;" vertex="1" parent="1">
          <mxGeometry x="160" y="310" width="120" height="40" as="geometry" />
        </mxCell>
        <mxCell id="-MnlB71Zx33rIP29frci-30" style="edgeStyle=orthogonalEdgeStyle;rounded=0;orthogonalLoop=1;jettySize=auto;html=1;" edge="1" parent="1" source="-MnlB71Zx33rIP29frci-28" target="-MnlB71Zx33rIP29frci-29">
          <mxGeometry relative="1" as="geometry" />
        </mxCell>
        <mxCell id="-MnlB71Zx33rIP29frci-28" value="k" style="strokeWidth=1;html=1;shape=mxgraph.flowchart.loop_limit;whiteSpace=wrap;direction=west;" vertex="1" parent="1">
          <mxGeometry x="160" y="380" width="120" height="40" as="geometry" />
        </mxCell>
        <mxCell id="-MnlB71Zx33rIP29frci-31" style="edgeStyle=orthogonalEdgeStyle;rounded=0;orthogonalLoop=1;jettySize=auto;html=1;" edge="1" parent="1" source="-MnlB71Zx33rIP29frci-29" target="Lw7SE_ZflwtWmPrIWczu-8">
          <mxGeometry relative="1" as="geometry" />
        </mxCell>
        <mxCell id="-MnlB71Zx33rIP29frci-29" value="c := c * k" style="rounded=0;whiteSpace=wrap;html=1;strokeWidth=1;" vertex="1" parent="1">
          <mxGeometry x="160" y="450" width="120" height="40" as="geometry" />
        </mxCell>
      </root>
    </mxGraphModel>
  </diagram>
</mxfile>
